{
    "asset" : {
        "generator" : "Khronos glTF Blender I/O v1.0.5",
        "version" : "2.0"
    },
    "scene" : 0,
    "scenes" : [
        {
            "name" : "Scene",
            "nodes" : [
                11
            ]
        }
    ],
    "nodes" : [
        {
            "mesh" : 0,
            "name" : "Mesh1_Grid_Amarelo_0"
        },
        {
            "children" : [
                0
            ],
            "name" : "Mesh1"
        },
        {
            "children" : [
                1
            ],
            "name" : "Group1"
        },
        {
            "mesh" : 1,
            "name" : "Mesh2___0"
        },
        {
            "mesh" : 2,
            "name" : "Mesh2_Wood_Veneer_01_0"
        },
        {
            "children" : [
                3,
                4
            ],
            "name" : "Mesh2"
        },
        {
            "children" : [
                5
            ],
            "name" : "Group2"
        },
        {
            "children" : [
                2,
                6
            ],
            "name" : "Model"
        },
        {
            "children" : [
                7
            ],
            "name" : "RootNode"
        },
        {
            "children" : [
                8
            ],
            "name" : "306b332a38364390a2a28fb620877b2a.fbx",
            "rotation" : [
                0.7071068286895752,
                0,
                0,
                0.7071068286895752
            ]
        },
        {
            "children" : [
                9
            ],
            "name" : "RootNode (model correction matrix)"
        },
        {
            "children" : [
                10
            ],
            "name" : "RootNode (gltf orientation matrix)"
        }
    ],
    "materials" : [
        {
            "doubleSided" : true,
            "emissiveFactor" : [
                0,
                0,
                0
            ],
            "name" : "Grid_Amarelo",
            "pbrMetallicRoughness" : {
                "baseColorFactor" : [
                    0.016316959634423256,
                    0.016316959634423256,
                    0.016316959634423256,
                    1
                ],
                "metallicFactor" : 0,
                "roughnessFactor" : 0.8277778029441833
            }
        },
        {
            "doubleSided" : true,
            "emissiveFactor" : [
                0,
                0,
                0
            ],
            "name" : "material",
            "pbrMetallicRoughness" : {
                "baseColorTexture" : {
                    "index" : 0,
                    "texCoord" : 0
                },
                "metallicFactor" : 0,
                "roughnessFactor" : 0.7585954070091248
            }
        },
        {
            "doubleSided" : true,
            "emissiveFactor" : [
                0,
                0,
                0
            ],
            "name" : "Wood_Veneer_01",
            "pbrMetallicRoughness" : {
                "baseColorTexture" : {
                    "index" : 1,
                    "texCoord" : 0
                },
                "metallicFactor" : 0,
                "roughnessFactor" : 0.9302135109901428
            }
        }
    ],
    "meshes" : [
        {
            "name" : "Mesh1_Grid_Amarelo_0",
            "primitives" : [
                {
                    "attributes" : {
                        "POSITION" : 0,
                        "NORMAL" : 1,
                        "TEXCOORD_0" : 2,
                        "TEXCOORD_1" : 3,
                        "TEXCOORD_2" : 4,
                        "TEXCOORD_3" : 5,
                        "TEXCOORD_4" : 6,
                        "TEXCOORD_5" : 7,
                        "TEXCOORD_6" : 8,
                        "TEXCOORD_7" : 9
                    },
                    "indices" : 10,
                    "material" : 0
                }
            ]
        },
        {
            "name" : "Mesh2___0",
            "primitives" : [
                {
                    "attributes" : {
                        "POSITION" : 11,
                        "NORMAL" : 12,
                        "TEXCOORD_0" : 13,
                        "TEXCOORD_1" : 14,
                        "TEXCOORD_2" : 15,
                        "TEXCOORD_3" : 16,
                        "TEXCOORD_4" : 17,
                        "TEXCOORD_5" : 18,
                        "TEXCOORD_6" : 19,
                        "TEXCOORD_7" : 20
                    },
                    "indices" : 21,
                    "material" : 1
                }
            ]
        },
        {
            "name" : "Mesh2_Wood_Veneer_01_0",
            "primitives" : [
                {
                    "attributes" : {
                        "POSITION" : 22,
                        "NORMAL" : 23,
                        "TEXCOORD_0" : 24,
                        "TEXCOORD_1" : 25,
                        "TEXCOORD_2" : 26,
                        "TEXCOORD_3" : 27,
                        "TEXCOORD_4" : 28,
                        "TEXCOORD_5" : 29,
                        "TEXCOORD_6" : 30,
                        "TEXCOORD_7" : 31
                    },
                    "indices" : 32,
                    "material" : 2
                }
            ]
        }
    ],
    "textures" : [
        {
            "source" : 0
        },
        {
            "source" : 0
        }
    ],
    "images" : [
        {
            "mimeType" : "image/png",
            "name" : "material_baseColor",
            "uri" : "material_baseColor.png"
        }
    ],
    "accessors" : [
        {
            "bufferView" : 0,
            "componentType" : 5126,
            "count" : 687,
            "max" : [
                119,
                0,
                0
            ],
            "min" : [
                0,
                -69.5,
                -71.5999984741211
            ],
            "type" : "VEC3"
        },
        {
            "bufferView" : 1,
            "componentType" : 5126,
            "count" : 687,
            "type" : "VEC3"
        },
        {
            "bufferView" : 2,
            "componentType" : 5126,
            "count" : 687,
            "type" : "VEC2"
        },
        {
            "bufferView" : 3,
            "componentType" : 5126,
            "count" : 687,
            "type" : "VEC2"
        },
        {
            "bufferView" : 4,
            "componentType" : 5126,
            "count" : 687,
            "type" : "VEC2"
        },
        {
            "bufferView" : 5,
            "componentType" : 5126,
            "count" : 687,
            "type" : "VEC2"
        },
        {
            "bufferView" : 6,
            "componentType" : 5126,
            "count" : 687,
            "type" : "VEC2"
        },
        {
            "bufferView" : 7,
            "componentType" : 5126,
            "count" : 687,
            "type" : "VEC2"
        },
        {
            "bufferView" : 8,
            "componentType" : 5126,
            "count" : 687,
            "type" : "VEC2"
        },
        {
            "bufferView" : 9,
            "componentType" : 5126,
            "count" : 687,
            "type" : "VEC2"
        },
        {
            "bufferView" : 10,
            "componentType" : 5123,
            "count" : 786,
            "type" : "SCALAR"
        },
        {
            "bufferView" : 11,
            "componentType" : 5126,
            "count" : 238,
            "max" : [
                119,
                0,
                -71.5999984741211
            ],
            "min" : [
                0,
                -69.5,
                -75.5999984741211
            ],
            "type" : "VEC3"
        },
        {
            "bufferView" : 12,
            "componentType" : 5126,
            "count" : 238,
            "type" : "VEC3"
        },
        {
            "bufferView" : 13,
            "componentType" : 5126,
            "count" : 238,
            "type" : "VEC2"
        },
        {
            "bufferView" : 14,
            "componentType" : 5126,
            "count" : 238,
            "type" : "VEC2"
        },
        {
            "bufferView" : 15,
            "componentType" : 5126,
            "count" : 238,
            "type" : "VEC2"
        },
        {
            "bufferView" : 16,
            "componentType" : 5126,
            "count" : 238,
            "type" : "VEC2"
        },
        {
            "bufferView" : 17,
            "componentType" : 5126,
            "count" : 238,
            "type" : "VEC2"
        },
        {
            "bufferView" : 18,
            "componentType" : 5126,
            "count" : 238,
            "type" : "VEC2"
        },
        {
            "bufferView" : 19,
            "componentType" : 5126,
            "count" : 238,
            "type" : "VEC2"
        },
        {
            "bufferView" : 20,
            "componentType" : 5126,
            "count" : 238,
            "type" : "VEC2"
        },
        {
            "bufferView" : 21,
            "componentType" : 5123,
            "count" : 276,
            "type" : "SCALAR"
        },
        {
            "bufferView" : 22,
            "componentType" : 5126,
            "count" : 20,
            "max" : [
                119,
                0,
                -71.5999984741211
            ],
            "min" : [
                0.10000000149011612,
                -69.4000015258789,
                -75.5999984741211
            ],
            "type" : "VEC3"
        },
        {
            "bufferView" : 23,
            "componentType" : 5126,
            "count" : 20,
            "type" : "VEC3"
        },
        {
            "bufferView" : 24,
            "componentType" : 5126,
            "count" : 20,
            "type" : "VEC2"
        },
        {
            "bufferView" : 25,
            "componentType" : 5126,
            "count" : 20,
            "type" : "VEC2"
        },
        {
            "bufferView" : 26,
            "componentType" : 5126,
            "count" : 20,
            "type" : "VEC2"
        },
        {
            "bufferView" : 27,
            "componentType" : 5126,
            "count" : 20,
            "type" : "VEC2"
        },
        {
            "bufferView" : 28,
            "componentType" : 5126,
            "count" : 20,
            "type" : "VEC2"
        },
        {
            "bufferView" : 29,
            "componentType" : 5126,
            "count" : 20,
            "type" : "VEC2"
        },
        {
            "bufferView" : 30,
            "componentType" : 5126,
            "count" : 20,
            "type" : "VEC2"
        },
        {
            "bufferView" : 31,
            "componentType" : 5126,
            "count" : 20,
            "type" : "VEC2"
        },
        {
            "bufferView" : 32,
            "componentType" : 5123,
            "count" : 24,
            "type" : "SCALAR"
        }
    ],
    "bufferViews" : [
        {
            "buffer" : 0,
            "byteLength" : 8244,
            "byteOffset" : 0
        },
        {
            "buffer" : 0,
            "byteLength" : 8244,
            "byteOffset" : 8244
        },
        {
            "buffer" : 0,
            "byteLength" : 5496,
            "byteOffset" : 16488
        },
        {
            "buffer" : 0,
            "byteLength" : 5496,
            "byteOffset" : 21984
        },
        {
            "buffer" : 0,
            "byteLength" : 5496,
            "byteOffset" : 27480
        },
        {
            "buffer" : 0,
            "byteLength" : 5496,
            "byteOffset" : 32976
        },
        {
            "buffer" : 0,
            "byteLength" : 5496,
            "byteOffset" : 38472
        },
        {
            "buffer" : 0,
            "byteLength" : 5496,
            "byteOffset" : 43968
        },
        {
            "buffer" : 0,
            "byteLength" : 5496,
            "byteOffset" : 49464
        },
        {
            "buffer" : 0,
            "byteLength" : 5496,
            "byteOffset" : 54960
        },
        {
            "buffer" : 0,
            "byteLength" : 1572,
            "byteOffset" : 60456
        },
        {
            "buffer" : 0,
            "byteLength" : 2856,
            "byteOffset" : 62028
        },
        {
            "buffer" : 0,
            "byteLength" : 2856,
            "byteOffset" : 64884
        },
        {
            "buffer" : 0,
            "byteLength" : 1904,
            "byteOffset" : 67740
        },
        {
            "buffer" : 0,
            "byteLength" : 1904,
            "byteOffset" : 69644
        },
        {
            "buffer" : 0,
            "byteLength" : 1904,
            "byteOffset" : 71548
        },
        {
            "buffer" : 0,
            "byteLength" : 1904,
            "byteOffset" : 73452
        },
        {
            "buffer" : 0,
            "byteLength" : 1904,
            "byteOffset" : 75356
        },
        {
            "buffer" : 0,
            "byteLength" : 1904,
            "byteOffset" : 77260
        },
        {
            "buffer" : 0,
            "byteLength" : 1904,
            "byteOffset" : 79164
        },
        {
            "buffer" : 0,
            "byteLength" : 1904,
            "byteOffset" : 81068
        },
        {
            "buffer" : 0,
            "byteLength" : 552,
            "byteOffset" : 82972
        },
        {
            "buffer" : 0,
            "byteLength" : 240,
            "byteOffset" : 83524
        },
        {
            "buffer" : 0,
            "byteLength" : 240,
            "byteOffset" : 83764
        },
        {
            "buffer" : 0,
            "byteLength" : 160,
            "byteOffset" : 84004
        },
        {
            "buffer" : 0,
            "byteLength" : 160,
            "byteOffset" : 84164
        },
        {
            "buffer" : 0,
            "byteLength" : 160,
            "byteOffset" : 84324
        },
        {
            "buffer" : 0,
            "byteLength" : 160,
            "byteOffset" : 84484
        },
        {
            "buffer" : 0,
            "byteLength" : 160,
            "byteOffset" : 84644
        },
        {
            "buffer" : 0,
            "byteLength" : 160,
            "byteOffset" : 84804
        },
        {
            "buffer" : 0,
            "byteLength" : 160,
            "byteOffset" : 84964
        },
        {
            "buffer" : 0,
            "byteLength" : 160,
            "byteOffset" : 85124
        },
        {
            "buffer" : 0,
            "byteLength" : 48,
            "byteOffset" : 85284
        }
    ],
    "buffers" : [
        {
            "byteLength" : 85332,
            "uri" : "Mezuba.bin"
        }
    ]
}
